<svg width="180" height="180" viewBox="0 0 180 180" fill="none" xmlns="http://www.w3.org/2000/svg">
<style>
  path { fill: black; }
  @media (prefers-color-scheme: dark) {
    path { fill: white; }
  }
</style>
<path d="M93 17C125.998 17 142.498 16.9997 152.749 27.251C163 37.5022 163 54.0017 163 87V95C163 127.998 163 144.498 152.749 154.749C142.498 165 125.998 165 93 165H85C52.0017 165 35.5022 165 25.251 154.749C14.9997 144.498 15 127.998 15 95V87C15 54.0017 14.9997 37.5022 25.251 27.251C35.5022 16.9997 52.0017 17 85 17H93ZM64.0625 51.4551V130H117.142V112.818H85.3867V51.4551H64.0625Z"/>
</svg>
